<svg version="1.1" id="Layer_1" xmlns="http://www.w3.org/2000/svg" xmlns:xlink="http://www.w3.org/1999/xlink" x="0px" y="0px"
	 width="100%" viewBox="0 0 500 500" enable-background="new 0 0 500 500" xml:space="preserve">
<path fill="#FFFFFF" opacity="1.000000" stroke="none" 
	d="
M330.000000,501.000000 
	C220.000031,501.000000 110.500053,501.000000 1.000059,501.000000 
	C1.000039,334.333405 1.000039,167.666794 1.000020,1.000148 
	C167.666565,1.000099 334.333130,1.000099 500.999756,1.000049 
	C500.999847,167.666519 500.999847,334.333038 500.999939,500.999786 
	C444.166656,501.000000 387.333344,501.000000 330.000000,501.000000 
M391.500000,346.062622 
	C408.165222,346.051605 424.830475,346.050720 441.495636,346.017242 
	C443.658661,346.012878 445.855621,346.054047 447.978912,345.713196 
	C472.652435,341.751862 493.014252,320.645691 495.876038,296.153564 
	C498.812012,271.026459 484.044678,246.204315 460.067993,237.036316 
	C453.200165,234.410263 445.707214,233.419052 437.981018,231.552628 
	C436.038452,211.010010 426.428986,193.958664 408.243530,182.473160 
	C390.283386,171.129959 370.828583,168.748322 350.486023,175.052811 
	C324.246765,104.499046 209.088593,98.440216 173.395187,168.649490 
	C152.576691,161.542313 132.964355,164.105972 115.750244,178.005219 
	C98.395302,192.018173 91.429176,210.278122 96.711365,232.137543 
	C90.398766,233.142242 84.214958,233.619873 78.304070,235.151031 
	C44.828705,243.822449 27.269489,272.988068 35.999584,305.007599 
	C42.348907,328.295166 64.978851,345.986328 89.017242,346.005981 
	C189.511444,346.088135 290.005737,346.054077 391.500000,346.062622 
z"/>
<path fill="#7D3102" opacity="1.000000" stroke="none" 
	d="
M391.000000,346.062622 
	C290.005737,346.054077 189.511444,346.088135 89.017242,346.005981 
	C64.978851,345.986328 42.348907,328.295166 35.999584,305.007599 
	C27.269489,272.988068 44.828705,243.822449 78.304070,235.151031 
	C84.214958,233.619873 90.398766,233.142242 96.711365,232.137543 
	C91.429176,210.278122 98.395302,192.018173 115.750244,178.005219 
	C132.964355,164.105972 152.576691,161.542313 173.395187,168.649490 
	C209.088593,98.440216 324.246765,104.499046 350.486023,175.052811 
	C370.828583,168.748322 390.283386,171.129959 408.243530,182.473160 
	C426.428986,193.958664 436.038452,211.010010 437.981018,231.552628 
	C445.707214,233.419052 453.200165,234.410263 460.067993,237.036316 
	C484.044678,246.204315 498.812012,271.026459 495.876038,296.153564 
	C493.014252,320.645691 472.652435,341.751862 447.978912,345.713196 
	C445.855621,346.054047 443.658661,346.012878 441.495636,346.017242 
	C424.830475,346.050720 408.165222,346.051605 391.000000,346.062622 
M129.452515,181.835510 
	C105.014717,196.983246 101.188812,218.225525 112.269936,243.357925 
	C102.411362,243.934921 93.472603,243.576645 84.877945,245.126526 
	C59.188641,249.759109 40.397705,270.024078 45.951939,299.106934 
	C49.573177,318.068329 68.747543,334.804932 88.101540,334.939606 
	C124.765709,335.194763 161.432587,335.081970 198.098343,335.081055 
	C278.930084,335.079010 359.762360,335.209503 440.593292,334.951538 
	C470.236420,334.856934 491.657990,305.065704 483.152618,276.706665 
	C477.411407,257.564026 459.998596,244.315552 440.059204,243.964447 
	C435.811798,243.889648 431.561951,243.953522 426.870483,243.953522 
	C428.287476,221.160202 420.623657,203.337753 401.797424,191.575363 
	C383.087860,179.885864 363.333923,180.594498 343.384277,189.728516 
	C331.409882,149.352661 302.617950,131.565704 263.706177,130.425369 
	C225.054199,129.292633 194.945358,145.090302 179.240005,183.181564 
	C162.949509,175.443588 146.643448,173.099609 129.452515,181.835510 
z"/>
<path fill="#FF751F" opacity="1.000000" stroke="none" 
	d="
M129.775681,181.647980 
	C146.643448,173.099609 162.949509,175.443588 179.240005,183.181564 
	C194.945358,145.090302 225.054199,129.292633 263.706177,130.425369 
	C302.617950,131.565704 331.409882,149.352661 343.384277,189.728516 
	C363.333923,180.594498 383.087860,179.885864 401.797424,191.575363 
	C420.623657,203.337753 428.287476,221.160202 426.870483,243.953522 
	C431.561951,243.953522 435.811798,243.889648 440.059204,243.964447 
	C459.998596,244.315552 477.411407,257.564026 483.152618,276.706665 
	C491.657990,305.065704 470.236420,334.856934 440.593292,334.951538 
	C359.762360,335.209503 278.930084,335.079010 198.098343,335.081055 
	C161.432587,335.081970 124.765709,335.194763 88.101540,334.939606 
	C68.747543,334.804932 49.573177,318.068329 45.951939,299.106934 
	C40.397705,270.024078 59.188641,249.759109 84.877945,245.126526 
	C93.472603,243.576645 102.411362,243.934921 112.269936,243.357925 
	C101.188812,218.225525 105.014717,196.983246 129.775681,181.647980 
M252.039490,235.982803 
	C252.039490,251.237411 252.039490,266.492035 252.039490,281.693268 
	C255.870712,281.693268 258.783722,281.693268 262.002380,281.693268 
	C262.002380,268.908295 261.991119,256.443939 262.017212,243.979675 
	C262.020325,242.495239 261.815277,240.813065 262.416229,239.563858 
	C264.283997,235.681061 274.305573,231.427505 278.649475,232.406540 
	C283.353851,233.466797 285.657776,236.788055 285.820984,244.099030 
	C286.062469,254.918030 285.912750,265.745789 285.928711,276.569794 
	C285.931305,278.321503 285.929108,280.073181 285.929108,281.817810 
	C289.469513,281.817810 292.262421,281.817810 295.631897,281.817810 
	C295.631897,270.014130 295.638885,258.399963 295.629486,246.785767 
	C295.623108,238.911072 297.211487,236.522141 304.569489,233.430161 
	C312.540222,230.080734 318.384857,233.263962 318.933655,241.867676 
	C319.462769,250.162994 319.189636,258.510315 319.240570,266.834961 
	C319.270782,271.777710 319.246094,276.720795 319.246094,281.733246 
	C322.793610,281.733246 325.706848,281.733246 329.001465,281.733246 
	C329.001465,269.664978 329.009644,257.875702 328.994080,246.086411 
	C328.991211,243.922974 329.060608,241.739944 328.809937,239.599533 
	C327.141663,225.353760 314.423553,219.109482 302.011353,226.493271 
	C299.186707,228.173584 296.641785,230.324112 293.700317,232.451920 
	C290.231384,226.685471 285.061310,222.768890 278.586426,223.760971 
	C272.641327,224.671860 267.032867,227.779755 261.285126,229.916336 
	C259.163361,223.530258 259.163361,223.530258 249.337997,225.534363 
	C250.211243,228.719971 251.084488,231.905579 252.039490,235.982803 
M170.443542,245.800629 
	C171.929703,241.696777 174.199356,237.688629 174.715134,233.466248 
	C175.455963,227.401138 174.916946,221.179947 174.928009,215.025391 
	C174.946182,204.917358 175.096771,204.725510 185.043991,202.334686 
	C184.940109,200.818298 184.832886,199.253067 184.729965,197.750580 
	C172.243942,196.765228 165.923462,202.472229 165.377869,215.189804 
	C165.078659,222.164490 165.611633,229.191559 165.004822,236.128128 
	C164.763092,238.891235 162.595932,241.558090 161.042633,244.108795 
	C160.010880,245.803009 158.513428,247.213623 156.558304,249.545761 
	C164.094818,251.013840 165.240723,255.254211 165.310089,260.318298 
	C165.417007,268.124939 165.135117,275.985382 165.963577,283.721710 
	C167.065048,294.007385 174.307388,298.854889 184.781296,297.095367 
	C184.781296,295.532928 184.781296,293.942749 184.781296,292.392822 
	C175.615753,290.855072 174.948273,290.048523 174.928925,280.652924 
	C174.916260,274.498322 174.951736,268.343475 174.904831,262.189178 
	C174.860184,256.329834 173.562820,250.996414 168.118729,247.553024 
	C168.822098,247.017273 169.349045,246.615875 170.443542,245.800629 
M364.740387,277.295776 
	C364.752838,271.631531 364.775360,265.967255 364.774841,260.303009 
	C364.774353,255.222321 366.098816,251.025085 372.548279,249.729034 
	C371.891388,247.895279 371.698273,245.333466 370.735809,245.001358 
	C364.979218,243.015015 364.840271,238.442963 364.733582,233.642303 
	C364.559967,225.827087 364.851440,217.947617 363.928253,210.216858 
	C362.819763,200.934082 354.740417,196.098541 345.247986,198.162476 
	C345.247986,199.608704 345.247986,201.066162 345.247986,202.478546 
	C354.695618,204.580673 355.079132,205.070282 355.096863,214.858536 
	C355.108337,221.189224 354.978546,227.524200 355.171875,233.849304 
	C355.338776,239.309967 356.601379,244.409454 362.129944,247.615738 
	C356.552002,250.772446 355.322784,255.908371 355.164368,261.408234 
	C354.986908,267.567505 355.107208,273.735352 355.096466,279.899445 
	C355.078766,290.048767 354.985748,290.170013 345.028076,292.761383 
	C345.134491,294.263153 345.244995,295.823059 345.371704,297.611389 
	C352.605804,297.676422 359.105652,296.768463 362.234039,289.810608 
	C363.817413,286.289062 363.948486,282.114594 364.740387,277.295776 
M210.406723,239.138519 
	C216.563293,229.549774 222.946304,228.666656 235.798859,235.808624 
	C237.337601,233.783722 238.899109,231.728867 240.444031,229.695862 
	C227.962341,219.522476 210.020248,222.311279 201.645370,235.308563 
	C193.456741,248.016800 195.787460,266.554749 206.453766,277.237518 
	C215.935028,286.733459 234.435928,284.453705 241.122391,277.076569 
	C239.792999,274.942780 238.438736,272.769104 237.079941,270.588104 
	C235.285965,271.638184 234.159470,272.347809 232.988785,272.974915 
	C222.915771,278.370850 213.134384,274.812012 209.138550,264.066589 
	C206.112152,255.928131 206.210861,247.769196 210.406723,239.138519 
M308.432281,296.976105 
	C307.910767,299.574860 307.389252,302.173645 306.867737,304.772400 
	C307.423828,305.111755 307.979950,305.451111 308.536072,305.790466 
	C309.946991,304.635834 312.149536,303.721832 312.590240,302.272247 
	C313.318939,299.875061 312.859406,297.166412 308.432281,296.976105 
z"/>
<path fill="#FFFAF7" opacity="1.000000" stroke="none" 
	d="
M251.998611,235.536987 
	C251.084488,231.905579 250.211243,228.719971 249.331970,225.535919 
	C259.163361,223.530258 259.163361,223.530258 261.285126,229.916336 
	C267.032867,227.779755 272.641327,224.671860 278.586426,223.760971 
	C285.061310,222.768890 290.231384,226.685471 293.700317,232.451920 
	C296.641785,230.324112 299.186707,228.173584 302.011353,226.493271 
	C314.423553,219.109482 327.141663,225.353760 328.809937,239.599533 
	C329.060608,241.739944 328.991211,243.922974 328.994080,246.086411 
	C329.009644,257.875702 329.001465,269.664978 329.001465,281.733246 
	C325.706848,281.733246 322.793610,281.733246 319.246094,281.733246 
	C319.246094,276.720795 319.270782,271.777710 319.240570,266.834961 
	C319.189636,258.510315 319.462769,250.162994 318.933655,241.867676 
	C318.384857,233.263962 312.540222,230.080734 304.569489,233.430161 
	C297.211487,236.522141 295.623108,238.911072 295.629486,246.785767 
	C295.638885,258.399963 295.631897,270.014130 295.631897,281.817810 
	C292.262421,281.817810 289.469513,281.817810 285.929108,281.817810 
	C285.929108,280.073181 285.931305,278.321503 285.928711,276.569794 
	C285.912750,265.745789 286.062469,254.918030 285.820984,244.099030 
	C285.657776,236.788055 283.353851,233.466797 278.649475,232.406540 
	C274.305573,231.427505 264.283997,235.681061 262.416229,239.563858 
	C261.815277,240.813065 262.020325,242.495239 262.017212,243.979675 
	C261.991119,256.443939 262.002380,268.908295 262.002380,281.693268 
	C258.783722,281.693268 255.870712,281.693268 252.039490,281.693268 
	C252.039490,266.492035 252.039490,251.237411 251.998611,235.536987 
z"/>
<path fill="#FFF8F4" opacity="1.000000" stroke="none" 
	d="
M170.159775,246.007568 
	C169.349045,246.615875 168.822098,247.017273 168.118729,247.553024 
	C173.562820,250.996414 174.860184,256.329834 174.904831,262.189178 
	C174.951736,268.343475 174.916260,274.498322 174.928925,280.652924 
	C174.948273,290.048523 175.615753,290.855072 184.781296,292.392822 
	C184.781296,293.942749 184.781296,295.532928 184.781296,297.095367 
	C174.307388,298.854889 167.065048,294.007385 165.963577,283.721710 
	C165.135117,275.985382 165.417007,268.124939 165.310089,260.318298 
	C165.240723,255.254211 164.094818,251.013840 156.558304,249.545761 
	C158.513428,247.213623 160.010880,245.803009 161.042633,244.108795 
	C162.595932,241.558090 164.763092,238.891235 165.004822,236.128128 
	C165.611633,229.191559 165.078659,222.164490 165.377869,215.189804 
	C165.923462,202.472229 172.243942,196.765228 184.729965,197.750580 
	C184.832886,199.253067 184.940109,200.818298 185.043991,202.334686 
	C175.096771,204.725510 174.946182,204.917358 174.928009,215.025391 
	C174.916946,221.179947 175.455963,227.401138 174.715134,233.466248 
	C174.199356,237.688629 171.929703,241.696777 170.159775,246.007568 
z"/>
<path fill="#FFF8F4" opacity="1.000000" stroke="none" 
	d="
M364.738281,277.765564 
	C363.948486,282.114594 363.817413,286.289062 362.234039,289.810608 
	C359.105652,296.768463 352.605804,297.676422 345.371704,297.611389 
	C345.244995,295.823059 345.134491,294.263153 345.028076,292.761383 
	C354.985748,290.170013 355.078766,290.048767 355.096466,279.899445 
	C355.107208,273.735352 354.986908,267.567505 355.164368,261.408234 
	C355.322784,255.908371 356.552002,250.772446 362.129944,247.615738 
	C356.601379,244.409454 355.338776,239.309967 355.171875,233.849304 
	C354.978546,227.524200 355.108337,221.189224 355.096863,214.858536 
	C355.079132,205.070282 354.695618,204.580673 345.247986,202.478546 
	C345.247986,201.066162 345.247986,199.608704 345.247986,198.162476 
	C354.740417,196.098541 362.819763,200.934082 363.928253,210.216858 
	C364.851440,217.947617 364.559967,225.827087 364.733582,233.642303 
	C364.840271,238.442963 364.979218,243.015015 370.735809,245.001358 
	C371.698273,245.333466 371.891388,247.895279 372.548279,249.729034 
	C366.098816,251.025085 364.774353,255.222321 364.774841,260.303009 
	C364.775360,265.967255 364.752838,271.631531 364.738281,277.765564 
z"/>
<path fill="#FFFBF8" opacity="1.000000" stroke="none" 
	d="
M210.236160,239.481400 
	C206.210861,247.769196 206.112152,255.928131 209.138550,264.066589 
	C213.134384,274.812012 222.915771,278.370850 232.988785,272.974915 
	C234.159470,272.347809 235.285965,271.638184 237.079941,270.588104 
	C238.438736,272.769104 239.792999,274.942780 241.122391,277.076569 
	C234.435928,284.453705 215.935028,286.733459 206.453766,277.237518 
	C195.787460,266.554749 193.456741,248.016800 201.645370,235.308563 
	C210.020248,222.311279 227.962341,219.522476 240.444031,229.695862 
	C238.899109,231.728867 237.337601,233.783722 235.798859,235.808624 
	C222.946304,228.666656 216.563293,229.549774 210.236160,239.481400 
z"/>
<path fill="#FFCFB1" opacity="1.000000" stroke="none" 
	d="
M308.854736,296.956116 
	C312.859406,297.166412 313.318939,299.875061 312.590240,302.272247 
	C312.149536,303.721832 309.946991,304.635834 308.536072,305.790466 
	C307.979950,305.451111 307.423828,305.111755 306.867737,304.772400 
	C307.389252,302.173645 307.910767,299.574860 308.854736,296.956116 
z"/>
</svg>